<?xml version="1.0" encoding="UTF-8" standalone="no"?>
<!-- Created with Inkscape (http://www.inkscape.org/) -->

<svg
   width="32"
   height="32"
   viewBox="0 0 17.777778 17.777779"
   version="1.1"
   id="svg1"
   xml:space="preserve"
   sodipodi:docname="logo_bg.svg"
   inkscape:version="1.4.2 (ebf0e940, 2025-05-08)"
   xmlns:inkscape="http://www.inkscape.org/namespaces/inkscape"
   xmlns:sodipodi="http://sodipodi.sourceforge.net/DTD/sodipodi-0.dtd"
   xmlns="http://www.w3.org/2000/svg"
   xmlns:svg="http://www.w3.org/2000/svg"
   xmlns:rdf="http://www.w3.org/1999/02/22-rdf-syntax-ns#"
   xmlns:cc="http://creativecommons.org/ns#"><sodipodi:namedview
     id="namedview1"
     pagecolor="#505050"
     bordercolor="#eeeeee"
     borderopacity="1"
     inkscape:showpageshadow="0"
     inkscape:pageopacity="0"
     inkscape:pagecheckerboard="true"
     inkscape:deskcolor="#505050"
     inkscape:document-units="px"
     inkscape:zoom="22.627417"
     inkscape:cx="24.218407"
     inkscape:cy="17.810252"
     inkscape:window-width="2144"
     inkscape:window-height="1371"
     inkscape:window-x="1202"
     inkscape:window-y="32"
     inkscape:window-maximized="0"
     inkscape:current-layer="layer1"
     showgrid="true"><inkscape:grid
       id="grid10"
       units="px"
       originx="0"
       originy="0"
       spacingx="0.55555556"
       spacingy="0.55555559"
       empcolor="#0099e5"
       empopacity="0.30196078"
       color="#0099e5"
       opacity="0.14901961"
       empspacing="5"
       enabled="true"
       visible="true" /></sodipodi:namedview><defs
     id="defs1" /><g
     inkscape:label="Layer 1"
     inkscape:groupmode="layer"
     id="layer1"
     transform="translate(-6.7984441,-10.817991)"><rect
       style="fill:#212121;fill-opacity:1;stroke:none;stroke-width:0.222222;stroke-linecap:round;stroke-linejoin:round;stroke-dasharray:none;stroke-opacity:1"
       id="rect10"
       width="17.464628"
       height="17.464626"
       x="6.9550195"
       y="10.974566"
       inkscape:label="background"
       ry="2.602546" /><path
       style="fill:#000000;fill-opacity:1;stroke:#ffffff;stroke-width:0.2;stroke-linecap:round;stroke-linejoin:round;stroke-dasharray:none;stroke-opacity:1"
       d="m 8.3085937,24.431858 c 0,0 0.3329989,-3.970551 0.7031251,-4.257813 L 7.8359375,20.87717 C 8.4933258,18.584597 9.7572771,17.253308 10.199219,16.59592 9.6523438,16.088108 9.1875,16.295139 9.1875,16.295139 c 0.992187,-0.765625 1.785156,-0.566406 1.785156,-0.566406 -0.925781,-0.6875 -0.902343,-1.546875 -0.902343,-1.546875 1.727661,2.658967 4.53541,-1.254375 8.40675,2.489438 4.303408,0.232019 4.673533,2.480399 5.132048,3.402952 -1.175781,-0.675781 -4.640388,-0.276214 -4.640388,-0.276214 -0.143631,1.568893 2.121321,2.833952 2.375437,3.187505 -1.397641,0.574524 -3.469243,0.121534 -3.469243,0.121534 0.09391,0.160204 0.171253,1.392117 0.171253,1.392117 -0.800781,-0.628906 -0.928078,-0.618719 -0.928078,-0.618719 -0.121094,0.480469 -0.430893,0.789971 -0.430893,0.789971 -0.558594,-0.539063 -0.944651,-0.817592 -0.944651,-0.817592 -0.234375,0.785156 -0.668437,1.121427 -0.668437,1.121427 -0.460937,-0.734375 -1.314776,-1.452884 -1.314776,-1.452884 -0.863281,0.394531 -1.872728,1.093806 -1.872728,1.093806 -0.203125,-0.8125 -0.287263,-1.220864 -0.287263,-1.220864 0,0 -1.456692,-0.01761 -3.2907503,1.037523 z"
       id="path1"
       sodipodi:nodetypes="ccccccccccccccccccccc"
       inkscape:label="main" /><path
       style="fill:#ffffff;fill-opacity:1;stroke:#ffffff;stroke-width:0.1;stroke-linecap:round;stroke-linejoin:round;stroke-dasharray:none;stroke-opacity:1"
       d="m 13.339844,18.435764 0.140625,-0.05078 c 0.300781,-0.816406 0.828125,-0.742188 0.828125,-0.742188 0,0 0.636719,-0.04687 0.800781,0.734375 l 0.171875,0.08984 c 0,0 0.101563,-1.007812 -0.945312,-1.148437 -1.097656,0.128906 -0.996094,1.11719 -0.996094,1.11719 z"
       id="path7"
       sodipodi:nodetypes="ccccccc"
       inkscape:label="eye" /><path
       style="display:inline;fill:#ffffff;fill-opacity:1;stroke:#ffffff;stroke-width:0.1;stroke-linecap:round;stroke-linejoin:round;stroke-dasharray:none;stroke-opacity:1"
       d="m 18.523437,17.006076 c 3.806711,0.189953 4.518977,2.561552 4.518977,2.561552 -1.823795,-0.695502 -7.034601,0.290011 -7.034601,0.290011 1.574418,3.110165 4.44693,2.942584 4.441406,3.058594 -0.143631,-0.04419 -3.998747,0.793834 -4.636719,-2.898438 1.492187,-1.277344 1.882812,-2.964844 2.710937,-3.011719 z"
       id="path8"
       sodipodi:nodetypes="cccccc"
       inkscape:label="beak" /><path
       style="fill:#ffffff;fill-opacity:1;stroke:#ffffff;stroke-width:0.1;stroke-linecap:round;stroke-linejoin:round;stroke-dasharray:none;stroke-opacity:1"
       d="m 17.21875,20.775608 c 0.648437,-0.06641 1.289062,0.355468 1.289062,0.355468 0.515625,0.429687 0.757813,1.007813 0.757813,1.007813 -1.382813,-0.621094 -2.046875,-1.363281 -2.046875,-1.363281 z"
       id="path9"
       sodipodi:nodetypes="cccc"
       inkscape:label="mouth" /></g><metadata
     id="metadata10"><rdf:RDF><cc:License
         rdf:about="http://creativecommons.org/publicdomain/zero/1.0/"><cc:permits
           rdf:resource="http://creativecommons.org/ns#Reproduction" /><cc:permits
           rdf:resource="http://creativecommons.org/ns#Distribution" /><cc:permits
           rdf:resource="http://creativecommons.org/ns#DerivativeWorks" /></cc:License><cc:Work
         rdf:about=""><cc:license
           rdf:resource="http://creativecommons.org/publicdomain/zero/1.0/" /></cc:Work></rdf:RDF></metadata></svg>
